<?xml version="1.0" encoding="UTF-8" standalone="no"?>
<!-- Created with Inkscape (http://www.inkscape.org/) -->

<svg
   width="2000"
   height="500"
   viewBox="0 0 529.16662 132.29168"
   version="1.1"
   id="svg1"
   xml:space="preserve"
   inkscape:version="1.3.1 (91b66b0783, 2023-11-16, custom)"
   sodipodi:docname="xCloud-light.svg"
   xmlns:inkscape="http://www.inkscape.org/namespaces/inkscape"
   xmlns:sodipodi="http://sodipodi.sourceforge.net/DTD/sodipodi-0.dtd"
   xmlns="http://www.w3.org/2000/svg"
   xmlns:svg="http://www.w3.org/2000/svg"><sodipodi:namedview
     id="namedview1"
     pagecolor="#505050"
     bordercolor="#eeeeee"
     borderopacity="1"
     inkscape:showpageshadow="0"
     inkscape:pageopacity="0"
     inkscape:pagecheckerboard="0"
     inkscape:deskcolor="#d1d1d1"
     inkscape:document-units="mm"
     showguides="true"
     inkscape:zoom="0.41453897"
     inkscape:cx="663.38757"
     inkscape:cy="283.44742"
     inkscape:window-width="1910"
     inkscape:window-height="1030"
     inkscape:window-x="0"
     inkscape:window-y="0"
     inkscape:window-maximized="1"
     inkscape:current-layer="g2" /><defs
     id="defs1"><rect
       x="635.85736"
       y="453.96423"
       width="761.67932"
       height="193.57504"
       id="rect1" /></defs><g
     inkscape:label="Layer 1"
     inkscape:groupmode="layer"
     id="layer1"
     transform="translate(-59.175588,-235.03719)"><g
       id="g2"
       transform="matrix(1.9523106,0,0,1.9523106,-237.21983,-226.7869)"><path
         d="m 190.38035,249.58801 c -8.35381,0 -15.17242,6.81864 -15.17242,15.17243 a 2.1677053,2.1677053 0 0 0 0,0.0173 c 8.2e-4,0.13894 0.033,0.27605 0.0381,0.41488 -6.11048,1.05778 -10.87555,6.17073 -10.87555,12.57313 0,7.15673 5.84819,13.00493 13.00493,13.00493 h 36.84731 c 5.95967,0 10.83744,-4.87777 10.83744,-10.83745 0,-5.21183 -3.80287,-9.3916 -8.72498,-10.40986 0.006,-0.1398 0.0541,-0.27477 0.055,-0.41488 a 2.1677053,2.1677053 0 0 0 0,-0.004 2.1677053,2.1677053 0 0 0 0,-0.004 2.1677053,2.1677053 0 0 0 0,-0.004 c -3e-5,-5.95964 -4.8778,-10.8374 -10.83744,-10.83744 a 2.1677053,2.1677053 0 0 0 -0.0169,0 c -0.52196,0.004 -1.01811,0.1799 -1.53247,0.25823 -2.44948,-5.31882 -7.65292,-8.92781 -13.62301,-8.92819 z m 0,4.33497 c 4.75338,3.1e-4 8.93367,3.07727 10.34638,7.61585 a 2.1677053,2.1677053 0 0 0 2.77285,1.40549 c 0.66143,-0.22716 1.35818,-0.34515 2.05743,-0.35138 3.61345,0.003 6.49593,2.88478 6.49823,6.49824 -0.005,0.55016 -0.0775,1.09847 -0.22013,1.62984 a 2.1677053,2.1677053 0 0 0 2.28601,2.72207 c 0.0364,-0.004 0.0738,-0.006 0.11007,-0.009 3.61207,0.006 6.49401,2.8848 6.49401,6.49824 0,3.61689 -2.8856,6.50247 -6.50247,6.50247 h -36.84731 c -4.81395,0 -8.66995,-3.85601 -8.66995,-8.66996 0,-4.81394 3.856,-8.66995 8.66995,-8.66995 0.0457,5.6e-4 0.0899,-8.2e-4 0.13547,0 a 2.1677053,2.1677053 0 0 0 2.20136,-2.54849 c -0.10575,-0.59051 -0.16261,-1.18664 -0.16935,-1.7865 v -0.009 c 0.004,-6.007 4.82932,-10.82899 10.83744,-10.82899 z"
         id="path453561"
         style="color:#000000;fill:#ff8400;fill-opacity:1;fill-rule:evenodd;stroke:none;stroke-width:2.16749;stroke-linecap:round;stroke-linejoin:round;stroke-miterlimit:4.1;stroke-dasharray:none" /><path
         d="m 255.52386,290.77072 q -0.6096,0 -1.016,-0.2032 -0.3556,-0.2032 -0.762,-0.7112 l -8.7884,-11.176 -1.524,-1.3208 -8.8392,-11.2268 q -0.5588,-0.6604 -0.5588,-1.3716 0.0508,-0.7112 0.508,-1.2192 0.4572,-0.5588 1.3208,-0.5588 0.8636,0 1.4732,0.6096 l 8.5344,10.922 1.3716,1.1176 9.4488,12.0904 q 0.6604,0.8128 0.5588,1.524 -0.1016,0.7112 -0.6604,1.1176 -0.508,0.4064 -1.0668,0.4064 z m -20.1168,0 q -0.8128,0 -1.3208,-0.508 -0.4572,-0.508 -0.508,-1.2192 0,-0.7112 0.5588,-1.3716 l 9.3472,-11.684 2.1844,2.8956 -8.89,11.2776 q -0.4572,0.6096 -1.3716,0.6096 z m 11.8872,-13.208 -2.4892,-2.54 8.7884,-11.1252 q 0.3556,-0.508 0.762,-0.7112 0.4572,-0.2032 0.9144,-0.2032 0.8636,0 1.3208,0.5588 0.4572,0.508 0.4064,1.27 0,0.7112 -0.508,1.3716 z m 33.9852,13.716 q -4.1148,0 -7.7216,-1.5748 -3.556,-1.5748 -6.2992,-4.3688 -2.6924,-2.8448 -4.2164,-6.5024 -1.524,-3.7084 -1.524,-7.9248 0,-4.1656 1.4732,-7.8232 1.524,-3.7084 4.2164,-6.5024 2.7432,-2.794 6.2992,-4.3688 3.6068,-1.6256 7.7724,-1.6256 3.6576,0 6.6548,1.0668 2.9972,1.0668 5.7912,3.4036 0.4572,0.3556 0.508,0.8636 0.1016,0.4572 -0.1016,0.9144 -0.2032,0.4064 -0.6096,0.6096 -0.1016,0.4064 -0.508,0.6096 -0.4064,0.2032 -0.9652,0.1524 -0.508,-0.0508 -1.016,-0.4572 -1.9812,-1.7272 -4.318,-2.54 -2.3368,-0.8636 -5.4356,-0.8636 -3.302,0 -6.1976,1.3208 -2.8448,1.3208 -5.0292,3.6068 -2.1844,2.286 -3.4544,5.2832 -1.2192,2.9972 -1.2192,6.35 0,3.4544 1.2192,6.4516 1.27,2.9972 3.4544,5.2832 2.1844,2.286 5.0292,3.6068 2.8956,1.27 6.1976,1.27 2.794,0 5.2832,-0.9144 2.4892,-0.9144 4.7244,-2.6416 0.6096,-0.508 1.27,-0.4064 0.7112,0.1016 1.2192,0.6096 0.508,0.508 0.508,1.3208 0,0.4064 -0.1524,0.762 -0.1016,0.3048 -0.4064,0.6604 -2.5908,2.3876 -5.7912,3.4036 -3.2004,0.9652 -6.6548,0.9652 z m 26.66998,-0.508 q -2.032,0 -3.6576,-1.1176 -1.5748,-1.1176 -2.4892,-3.0988 -0.8636,-1.9812 -0.8636,-4.572 v -28.956 q 0,-0.8636 0.508,-1.3716 0.5588,-0.5588 1.4224,-0.5588 0.8636,0 1.3716,0.5588 0.5588,0.508 0.5588,1.3716 v 28.956 q 0,2.1844 0.8636,3.556 0.9144,1.3716 2.286,1.3716 h 1.27 q 0.762,0 1.2192,0.5588 0.4572,0.508 0.4572,1.3716 0,0.8636 -0.6604,1.4224 -0.6096,0.508 -1.6256,0.508 z m 19.45634,0.254 q -4.064,0 -7.2644,-1.8288 -3.2004,-1.8288 -5.0292,-5.0292 -1.8288,-3.2004 -1.8288,-7.2644 0,-4.1148 1.8288,-7.3152 1.8288,-3.2004 5.0292,-5.0292 3.2004,-1.8288 7.2644,-1.8288 4.064,0 7.2136,1.8288 3.2004,1.8288 5.0292,5.0292 1.8288,3.2004 1.8796,7.3152 0,4.064 -1.8796,7.2644 -1.8288,3.2004 -5.0292,5.0292 -3.1496,1.8288 -7.2136,1.8288 z m 0,-3.556 q 2.9464,0 5.2832,-1.3716 2.3368,-1.3716 3.6576,-3.7592 1.3208,-2.3876 1.3208,-5.4356 0,-3.048 -1.3208,-5.4356 -1.3208,-2.4384 -3.6576,-3.81 -2.3368,-1.3716 -5.2832,-1.3716 -2.9464,0 -5.2832,1.3716 -2.3368,1.3716 -3.7084,3.81 -1.3208,2.3876 -1.3208,5.4356 0,3.048 1.3208,5.4356 1.3716,2.3876 3.7084,3.7592 2.3368,1.3716 5.2832,1.3716 z m 33.83281,3.6068 q -3.6068,0 -6.4516,-1.4732 -2.8448,-1.524 -4.5212,-4.4196 -1.6256,-2.8956 -1.6256,-7.0612 v -13.208 q 0,-0.8128 0.5588,-1.3716 0.5588,-0.5588 1.3716,-0.5588 0.8636,0 1.4224,0.5588 0.5588,0.5588 0.5588,1.3716 v 13.208 q 0,3.1496 1.1684,5.1816 1.2192,2.032 3.2512,3.048 2.0828,1.016 4.6736,1.016 2.4892,0 4.4704,-0.9652 2.032,-0.9652 3.2004,-2.6416 1.1684,-1.6764 1.1684,-3.81 h 2.794 q -0.1524,3.2004 -1.778,5.7404 -1.5748,2.4892 -4.2672,3.9624 -2.6924,1.4224 -5.9944,1.4224 z m 11.176,-0.3048 q -0.8636,0 -1.4224,-0.508 -0.508,-0.5588 -0.508,-1.4732 v -23.876 q 0,-0.8636 0.508,-1.3716 0.5588,-0.5588 1.4224,-0.5588 0.8636,0 1.4224,0.5588 0.5588,0.508 0.5588,1.3716 v 23.876 q 0,0.9144 -0.5588,1.4732 -0.5588,0.508 -1.4224,0.508 z m 23.7744,0.254 q -4.0132,0 -7.2136,-1.8288 -3.2004,-1.8796 -5.08,-5.08 -1.8288,-3.2004 -1.8288,-7.2644 0,-4.0132 1.778,-7.2136 1.8288,-3.2004 4.9276,-5.0292 3.0988,-1.8796 7.0104,-1.8796 3.4036,0 6.1468,1.4732 2.7432,1.4224 4.4196,3.81 v -14.9352 q 0,-0.9144 0.5588,-1.4224 0.5588,-0.5588 1.4224,-0.5588 0.8636,0 1.4224,0.5588 0.5588,0.508 0.5588,1.4224 v 23.9776 q -0.1016,3.9624 -1.9812,7.1628 -1.8288,3.1496 -5.0292,4.9784 -3.1496,1.8288 -7.112,1.8288 z m 0,-3.556 q 2.9464,0 5.2324,-1.3716 2.3368,-1.4224 3.6576,-3.81 1.3716,-2.3876 1.3716,-5.4356 0,-2.9972 -1.3716,-5.3848 -1.3208,-2.4384 -3.6576,-3.81 -2.286,-1.3716 -5.2324,-1.3716 -2.8956,0 -5.2324,1.3716 -2.3368,1.3716 -3.7084,3.81 -1.3716,2.3876 -1.3716,5.3848 0,3.048 1.3716,5.4356 1.3716,2.3876 3.7084,3.81 2.3368,1.3716 5.2324,1.3716 z"
         id="text1"
         style="-inkscape-font-specification:comfortaa;fill:#130e01;stroke-width:0;stroke-linecap:square;stroke-linejoin:round"
         aria-label="xCloud&#10;" /></g></g></svg>
