<?xml version="1.0" encoding="UTF-8" standalone="no"?>
<!-- Created with Inkscape (http://www.inkscape.org/) -->

<svg
   width="512"
   height="512"
   viewBox="0 0 135.46665 135.46668"
   version="1.1"
   id="svg1"
   xml:space="preserve"
   inkscape:version="1.3.2 (091e20ef0f, 2023-11-25, custom)"
   sodipodi:docname="xCloud-favicon.svg"
   xmlns:inkscape="http://www.inkscape.org/namespaces/inkscape"
   xmlns:sodipodi="http://sodipodi.sourceforge.net/DTD/sodipodi-0.dtd"
   xmlns="http://www.w3.org/2000/svg"
   xmlns:svg="http://www.w3.org/2000/svg"><sodipodi:namedview
     id="namedview1"
     pagecolor="#505050"
     bordercolor="#eeeeee"
     borderopacity="1"
     inkscape:showpageshadow="0"
     inkscape:pageopacity="0"
     inkscape:pagecheckerboard="0"
     inkscape:deskcolor="#d1d1d1"
     inkscape:document-units="mm"
     showguides="true"
     inkscape:zoom="0.4837083"
     inkscape:cx="230.51083"
     inkscape:cy="265.65597"
     inkscape:window-width="1900"
     inkscape:window-height="999"
     inkscape:window-x="0"
     inkscape:window-y="0"
     inkscape:window-maximized="1"
     inkscape:current-layer="g2" /><defs
     id="defs1"><rect
       x="635.85736"
       y="453.96423"
       width="761.67932"
       height="193.57504"
       id="rect1" /></defs><g
     inkscape:label="Layer 1"
     inkscape:groupmode="layer"
     id="layer1"
     transform="translate(-59.175588,-235.03719)"><g
       id="g2"
       transform="matrix(1.9523106,0,0,1.9523106,-237.21983,-226.7869)"><circle
         style="fill:#0f0a0f;fill-opacity:1;stroke-width:0.236362"
         id="path1"
         cx="186.51169"
         cy="271.24649"
         r="34.693935" /><path
         d="m 183.07005,252.37682 c -6.63229,0 -12.04577,5.41349 -12.04577,12.04577 a 1.7209956,1.7209956 0 0 0 0,0.0138 c 6.6e-4,0.11031 0.0262,0.21916 0.0303,0.32938 -4.85127,0.83979 -8.63437,4.8991 -8.63437,9.98212 0,5.68191 4.64302,10.32495 10.32493,10.32495 h 29.25401 c 4.73153,0 8.6041,-3.87258 8.6041,-8.60412 0,-4.13781 -3.01918,-7.45623 -6.92697,-8.26466 0.005,-0.11099 0.0429,-0.21814 0.0437,-0.32938 a 1.7209956,1.7209956 0 0 0 0,-0.004 1.7209956,1.7209956 0 0 0 0,-0.004 1.7209956,1.7209956 0 0 0 0,-0.004 c -3e-5,-4.7315 -3.87262,-8.60408 -8.60413,-8.60411 a 1.7209956,1.7209956 0 0 0 -0.0135,0 c -0.4144,0.004 -0.80831,0.14282 -1.21666,0.20502 -1.94471,-4.22275 -6.07584,-7.08802 -10.81565,-7.08832 z m 0,3.44163 c 3.77383,2.5e-4 7.09267,2.44313 8.21426,6.04642 a 1.7209956,1.7209956 0 0 0 2.20143,1.11586 c 0.52512,-0.18035 1.07829,-0.27403 1.63344,-0.27897 2.86881,0.001 5.15728,2.29029 5.15911,5.15911 -0.004,0.43679 -0.0616,0.87211 -0.17476,1.29397 a 1.7209956,1.7209956 0 0 0 1.81492,2.16112 c 0.0289,-0.004 0.0585,-0.005 0.0874,-0.007 2.8677,0.005 5.15575,2.29031 5.15575,5.15912 0,2.87153 -2.29095,5.16247 -5.16248,5.16247 h -29.254 c -3.82191,0 -6.88329,-3.06139 -6.88329,-6.8833 0,-3.8219 3.06138,-6.88329 6.88329,-6.88329 0.0364,4.4e-4 0.0713,-6.5e-4 0.10756,0 a 1.7209956,1.7209956 0 0 0 1.74771,-2.02331 c -0.0839,-0.46882 -0.1291,-0.9421 -0.13446,-1.41835 v -0.007 c 0.004,-4.76911 3.83412,-8.59741 8.60413,-8.59741 z"
         id="path453561"
         style="color:#000000;display:inline;fill:#ac39aa;fill-opacity:1;fill-rule:evenodd;stroke:none;stroke-width:1.72083;stroke-linecap:round;stroke-linejoin:round;stroke-miterlimit:4.1;stroke-dasharray:none" /></g></g></svg>
