<?xml version="1.0" encoding="UTF-8" standalone="no"?>
<!-- Created with Inkscape (http://www.inkscape.org/) -->

<svg
   width="512"
   height="512"
   viewBox="0 0 135.46665 135.46668"
   version="1.1"
   id="svg1"
   xml:space="preserve"
   inkscape:version="1.3.2 (091e20ef0f, 2023-11-25, custom)"
   sodipodi:docname="xCloud-noTxt.svg"
   xmlns:inkscape="http://www.inkscape.org/namespaces/inkscape"
   xmlns:sodipodi="http://sodipodi.sourceforge.net/DTD/sodipodi-0.dtd"
   xmlns="http://www.w3.org/2000/svg"
   xmlns:svg="http://www.w3.org/2000/svg"><sodipodi:namedview
     id="namedview1"
     pagecolor="#505050"
     bordercolor="#eeeeee"
     borderopacity="1"
     inkscape:showpageshadow="0"
     inkscape:pageopacity="0"
     inkscape:pagecheckerboard="0"
     inkscape:deskcolor="#d1d1d1"
     inkscape:document-units="mm"
     showguides="true"
     inkscape:zoom="0.4837083"
     inkscape:cx="229.47715"
     inkscape:cy="265.65597"
     inkscape:window-width="1900"
     inkscape:window-height="999"
     inkscape:window-x="0"
     inkscape:window-y="0"
     inkscape:window-maximized="1"
     inkscape:current-layer="g2" /><defs
     id="defs1"><rect
       x="635.85736"
       y="453.96423"
       width="761.67932"
       height="193.57504"
       id="rect1" /></defs><g
     inkscape:label="Layer 1"
     inkscape:groupmode="layer"
     id="layer1"
     transform="translate(-59.175588,-235.03719)"><g
       id="g2"
       transform="matrix(1.9523106,0,0,1.9523106,-237.21983,-226.7869)"><path
         d="m 181.90933,249.38502 c -8.8691,0 -16.10832,7.23924 -16.10832,16.10832 a 2.3014171,2.3014171 0 0 0 0,0.0184 c 8.8e-4,0.14751 0.035,0.29308 0.0405,0.44047 -6.4874,1.12302 -11.54639,6.55136 -11.54639,13.34868 0,7.59819 6.20892,13.80713 13.80711,13.80713 h 39.12019 c 6.32728,0 11.50592,-5.17864 11.50592,-11.50594 0,-5.53332 -4.03743,-9.97091 -9.26316,-11.05199 0.007,-0.14842 0.0574,-0.29171 0.0584,-0.44046 a 2.3014171,2.3014171 0 0 0 0,-0.005 2.3014171,2.3014171 0 0 0 0,-0.005 2.3014171,2.3014171 0 0 0 0,-0.005 c -4e-5,-6.32724 -5.17869,-11.50588 -11.50595,-11.50592 a 2.3014171,2.3014171 0 0 0 -0.018,0 c -0.55416,0.005 -1.08092,0.19099 -1.62699,0.27417 -2.60058,-5.64692 -8.12498,-9.47853 -14.46333,-9.47892 z m 0,4.60236 c 5.04659,3.3e-4 9.48473,3.26709 10.98459,8.08563 a 2.3014171,2.3014171 0 0 0 2.94388,1.49219 c 0.70223,-0.24118 1.44195,-0.36645 2.18434,-0.37306 3.83634,0.002 6.89662,3.06272 6.89906,6.89907 -0.006,0.5841 -0.0823,1.16624 -0.2337,1.73038 a 2.3014171,2.3014171 0 0 0 2.42702,2.88998 c 0.0387,-0.005 0.0783,-0.007 0.11686,-0.009 3.83486,0.007 6.89458,3.06273 6.89458,6.89907 0,3.83998 -3.0636,6.90356 -6.90357,6.90356 h -39.12018 c -5.11089,0 -9.20475,-4.09386 -9.20475,-9.20475 0,-5.11087 4.09386,-9.20474 9.20475,-9.20474 0.0486,5.8e-4 0.0954,-8.7e-4 0.14383,0 a 2.3014171,2.3014171 0 0 0 2.33714,-2.7057 c -0.11224,-0.62693 -0.17264,-1.25983 -0.1798,-1.8967 v -0.009 c 0.005,-6.37753 5.12721,-11.49696 11.50594,-11.49696 z"
         id="path453561"
         style="color:#000000;fill:#ac39aa;fill-opacity:1;fill-rule:evenodd;stroke:none;stroke-width:2.30119;stroke-linecap:round;stroke-linejoin:round;stroke-miterlimit:4.1;stroke-dasharray:none" /></g></g></svg>
