<?xml version="1.0" encoding="UTF-8" standalone="no"?>
<!-- Created with Inkscape (http://www.inkscape.org/) -->

<svg
   width="2000"
   height="500"
   viewBox="0 0 529.16662 132.29168"
   version="1.1"
   id="svg1"
   xml:space="preserve"
   inkscape:version="1.3.1 (91b66b0783, 2023-11-16, custom)"
   sodipodi:docname="xCloud.svg"
   xmlns:inkscape="http://www.inkscape.org/namespaces/inkscape"
   xmlns:sodipodi="http://sodipodi.sourceforge.net/DTD/sodipodi-0.dtd"
   xmlns="http://www.w3.org/2000/svg"
   xmlns:svg="http://www.w3.org/2000/svg"><sodipodi:namedview
     id="namedview1"
     pagecolor="#505050"
     bordercolor="#eeeeee"
     borderopacity="1"
     inkscape:showpageshadow="0"
     inkscape:pageopacity="0"
     inkscape:pagecheckerboard="0"
     inkscape:deskcolor="#d1d1d1"
     inkscape:document-units="mm"
     showguides="true"
     inkscape:zoom="0.4837083"
     inkscape:cx="949.95268"
     inkscape:cy="222.24138"
     inkscape:window-width="1910"
     inkscape:window-height="1030"
     inkscape:window-x="0"
     inkscape:window-y="0"
     inkscape:window-maximized="1"
     inkscape:current-layer="g2" /><defs
     id="defs1"><rect
       x="635.85736"
       y="453.96423"
       width="761.67932"
       height="193.57504"
       id="rect1" /></defs><g
     inkscape:label="Layer 1"
     inkscape:groupmode="layer"
     id="layer1"
     transform="translate(-59.175588,-235.03719)"><g
       id="g2"
       transform="matrix(1.9523106,0,0,1.9523106,-237.21983,-226.7869)"><path
         d="m 190.38035,249.58801 c -8.35381,0 -15.17242,6.81864 -15.17242,15.17243 a 2.1677053,2.1677053 0 0 0 0,0.0173 c 8.2e-4,0.13894 0.033,0.27605 0.0381,0.41488 -6.11048,1.05778 -10.87555,6.17073 -10.87555,12.57313 0,7.15673 5.84819,13.00493 13.00493,13.00493 h 36.84731 c 5.95967,0 10.83744,-4.87777 10.83744,-10.83745 0,-5.21183 -3.80287,-9.3916 -8.72498,-10.40986 0.006,-0.1398 0.0541,-0.27477 0.055,-0.41488 a 2.1677053,2.1677053 0 0 0 0,-0.004 2.1677053,2.1677053 0 0 0 0,-0.004 2.1677053,2.1677053 0 0 0 0,-0.004 c -3e-5,-5.95964 -4.8778,-10.8374 -10.83744,-10.83744 a 2.1677053,2.1677053 0 0 0 -0.0169,0 c -0.52196,0.004 -1.01811,0.1799 -1.53247,0.25823 -2.44948,-5.31882 -7.65292,-8.92781 -13.62301,-8.92819 z m 0,4.33497 c 4.75338,3.1e-4 8.93367,3.07727 10.34638,7.61585 a 2.1677053,2.1677053 0 0 0 2.77285,1.40549 c 0.66143,-0.22716 1.35818,-0.34515 2.05743,-0.35138 3.61345,0.003 6.49593,2.88478 6.49823,6.49824 -0.005,0.55016 -0.0775,1.09847 -0.22013,1.62984 a 2.1677053,2.1677053 0 0 0 2.28601,2.72207 c 0.0364,-0.004 0.0738,-0.006 0.11007,-0.009 3.61207,0.006 6.49401,2.8848 6.49401,6.49824 0,3.61689 -2.8856,6.50247 -6.50247,6.50247 h -36.84731 c -4.81395,0 -8.66995,-3.85601 -8.66995,-8.66996 0,-4.81394 3.856,-8.66995 8.66995,-8.66995 0.0457,5.6e-4 0.0899,-8.2e-4 0.13547,0 a 2.1677053,2.1677053 0 0 0 2.20136,-2.54849 c -0.10575,-0.59051 -0.16261,-1.18664 -0.16935,-1.7865 v -0.009 c 0.004,-6.007 4.82932,-10.82899 10.83744,-10.82899 z"
         id="path453561"
         style="color:#000000;fill:#ff8400;fill-opacity:1;fill-rule:evenodd;stroke:none;stroke-width:2.16749;stroke-linecap:round;stroke-linejoin:round;stroke-miterlimit:4.1;stroke-dasharray:none" /><text
         xml:space="preserve"
         style="font-size:50.8px;line-height:0;font-family:comfortaa;-inkscape-font-specification:comfortaa;text-align:center;text-anchor:middle;fill:#333333;fill-opacity:1;stroke:none;stroke-width:0;stroke-linecap:square;stroke-linejoin:round;stroke-dasharray:none"
         x="323.21484"
         y="290.77072"
         id="text1"><tspan
           sodipodi:role="line"
           id="tspan1"
           style="fill:#333333;fill-opacity:1;stroke:none;stroke-width:0;stroke-dasharray:none"
           x="323.21484"
           y="290.77072">xCloud</tspan><tspan
           sodipodi:role="line"
           style="fill:#333333;fill-opacity:1;stroke:none;stroke-width:0;stroke-dasharray:none"
           x="323.21484"
           y="290.77072"
           id="tspan2" /></text></g></g></svg>
